<svg width="44.989014" height="31.934570" viewBox="0 0 44.989 31.9346" fill="none" xmlns="http://www.w3.org/2000/svg" xmlns:xlink="http://www.w3.org/1999/xlink">
	<desc>
			Created with Pixso.
	</desc>
	<defs/>
	<path id="Forma 1" d="M30.2581 27.2429L14.781 27.2429C14.5737 28.5509 13.9067 29.742 12.8997 30.6021C11.8926 31.4621 10.6118 31.9346 9.2876 31.9346C7.96313 31.9346 6.68237 31.4621 5.67529 30.6021C4.66821 29.742 4.00122 28.5509 3.79395 27.2429L1.85693 27.2429C1.3623 27.2397 0.888916 27.0404 0.540771 26.6887C0.192627 26.3371 -0.00195312 25.8618 0 25.3669L0 1.87695C-0.00219727 1.38196 0.192139 0.906342 0.540283 0.554443C0.888428 0.202545 1.36206 0.00317383 1.85693 0L27.408 0C27.9028 0.00317383 28.3762 0.202515 28.7244 0.554443C29.0723 0.906372 29.2664 1.38205 29.2639 1.87695L29.2639 3.78198L36.385 3.78198C36.4653 3.78165 36.5454 3.79208 36.623 3.81299C38.9231 4.013 40.0801 5.21289 41.3 7.2749L44.8591 13.3689C44.9438 13.5135 44.9888 13.6782 44.989 13.8459L44.989 26.304C44.99 26.5515 44.8928 26.7892 44.7188 26.9651C44.5444 27.141 44.3076 27.2406 44.0601 27.2419L41.2461 27.2419C41.0388 28.5499 40.3718 29.741 39.3647 30.6011C38.3577 31.4611 37.0769 31.9336 35.7524 31.9336C34.4282 31.9336 33.1475 31.4611 32.1404 30.6011C31.1333 29.741 30.4663 28.5499 30.259 27.2419L30.2581 27.2429ZM32.0361 26.304C32.0439 27.0369 32.2686 27.7511 32.6814 28.3567C33.0942 28.9623 33.6772 29.4322 34.3567 29.7073C35.0361 29.9824 35.7817 30.0503 36.4995 29.9026C37.2175 29.7548 37.8757 29.398 38.3914 28.877C38.907 28.3559 39.2568 27.6941 39.3972 26.9746C39.5374 26.2551 39.4617 25.5103 39.1794 24.8337C38.8975 24.1572 38.4214 23.5794 37.8115 23.1729C37.2017 22.7663 36.4851 22.5491 35.752 22.5488C34.7617 22.5552 33.8142 22.9543 33.1177 23.6582C32.4209 24.3622 32.032 25.3136 32.0361 26.304ZM5.57202 26.304C5.57983 27.0369 5.80444 27.7511 6.21729 28.3567C6.63037 28.9623 7.21313 29.4322 7.89258 29.7073C8.57202 29.9824 9.31763 30.0503 10.0356 29.9026C10.7537 29.7548 11.4119 29.398 11.9275 28.877C12.4429 28.3559 12.793 27.6941 12.9331 26.9746C13.0735 26.2551 12.9978 25.5103 12.7156 24.8337C12.4333 24.1572 11.9573 23.5794 11.3474 23.1729C10.7375 22.7663 10.021 22.5491 9.28809 22.5488C8.29761 22.5549 7.34985 22.9537 6.65308 23.6577C5.95605 24.3617 5.56714 25.3134 5.57104 26.304L5.57202 26.304ZM41.2441 25.366L43.1301 25.366L43.1301 19.7478L40.394 19.7478C40.2715 19.7473 40.1501 19.7227 40.0371 19.6753C39.9241 19.6279 39.8213 19.5586 39.7351 19.4714C39.6489 19.3843 39.5806 19.281 39.5342 19.1675C39.4878 19.054 39.4644 18.9324 39.4651 18.8098L39.4651 16.9629C39.4648 16.2422 39.7402 15.5488 40.2351 15.0249L33.856 15.0249C33.7788 15.0248 33.7019 15.015 33.627 14.9958C32.9224 14.933 32.2668 14.6081 31.79 14.0852C31.3135 13.5623 31.0505 12.8794 31.053 12.1719L31.053 7.47192C31.0522 7.34927 31.0759 7.22757 31.1223 7.11401C31.1685 7.00046 31.2368 6.89725 31.323 6.81006C31.4094 6.72287 31.512 6.6535 31.625 6.60596C31.738 6.55841 31.8594 6.5336 31.9819 6.53296L38.4651 6.53296C38.1206 6.21429 37.7134 5.97122 37.2693 5.81982C36.8252 5.66843 36.3542 5.61188 35.887 5.65381L29.2639 5.65381L29.2639 25.3618L30.2581 25.3618C30.4653 24.0538 31.1323 22.8627 32.1394 22.0027C33.1465 21.1426 34.4272 20.6702 35.7515 20.6702C37.0759 20.6702 38.3567 21.1426 39.3638 22.0027C40.3706 22.8627 41.0378 24.0538 41.2451 25.3618L41.2441 25.366ZM14.78 25.366L27.407 25.366L27.407 1.87598L1.85693 1.87598L1.85693 25.366L3.79395 25.366C4.00122 24.058 4.66821 22.8666 5.67529 22.0066C6.68237 21.1465 7.96313 20.6741 9.2876 20.6741C10.6118 20.6741 11.8926 21.1465 12.8997 22.0066C13.9067 22.8666 14.5737 24.058 14.781 25.366L14.78 25.366ZM41.322 16.9658L41.322 17.875L43.1301 17.875L43.1301 16.0278L42.251 16.0278C42.0042 16.0294 41.7681 16.1288 41.594 16.304C41.4202 16.4792 41.3228 16.716 41.323 16.9629L41.322 16.9658ZM32.9089 12.1738C32.908 12.4263 33.0071 12.6691 33.1846 12.8486C33.3621 13.0282 33.6035 13.13 33.856 13.1318C33.9199 13.1317 33.9836 13.1384 34.0461 13.1519L42.571 13.1519L39.8049 8.41602L32.905 8.41602L32.9089 12.1738ZM33.002 26.3059C32.999 25.5733 33.2869 24.8695 33.8022 24.3489C34.3176 23.8283 35.0186 23.5333 35.751 23.5288C35.9998 23.5288 36.2383 23.6278 36.4143 23.8037C36.5901 23.9796 36.689 24.218 36.689 24.4668C36.689 24.7156 36.5901 24.9542 36.4143 25.1301C36.2383 25.306 35.9998 25.4048 35.751 25.4048C35.5728 25.4032 35.3979 25.4548 35.2488 25.5527C35.0999 25.6507 34.9832 25.7905 34.9138 25.9548C34.8445 26.1191 34.8254 26.3005 34.8594 26.4756C34.8931 26.6507 34.9783 26.8118 35.1038 26.9385C35.2292 27.0651 35.3896 27.1516 35.5645 27.187C35.7393 27.2224 35.9207 27.2051 36.0854 27.1372C36.2505 27.0693 36.3916 26.9538 36.4907 26.8057C36.5901 26.6575 36.6431 26.4833 36.6431 26.3049C36.6431 26.0587 36.7407 25.8226 36.915 25.6484C37.0891 25.4743 37.3252 25.3765 37.5715 25.3765C37.8179 25.3765 38.054 25.4743 38.228 25.6484C38.4021 25.8226 38.5 26.0587 38.5 26.3049C38.5 27.0343 38.2102 27.7338 37.6946 28.2495C37.179 28.7652 36.4792 29.0549 35.75 29.0549C35.0208 29.0549 34.3213 28.7652 33.8054 28.2495C33.2898 27.7338 33 27.0343 33 26.3049L33.002 26.3059ZM6.53809 26.3059C6.53516 25.5733 6.823 24.8695 7.33838 24.3489C7.85376 23.8283 8.55444 23.5333 9.28711 23.5288C9.53589 23.5288 9.77441 23.6278 9.9502 23.8037C10.1262 23.9796 10.2251 24.218 10.2251 24.4668C10.2251 24.7156 10.1262 24.9542 9.9502 25.1301C9.77441 25.306 9.53589 25.4048 9.28711 25.4048C9.10864 25.4032 8.93384 25.4548 8.78491 25.5527C8.63574 25.6507 8.51929 25.7905 8.44995 25.9548C8.38062 26.1191 8.36157 26.3005 8.39526 26.4756C8.4292 26.6507 8.51416 26.8118 8.63989 26.9385C8.76538 27.0651 8.92578 27.1516 9.10059 27.187C9.27539 27.2224 9.45654 27.2051 9.62158 27.1372C9.78638 27.0693 9.92749 26.9538 10.0269 26.8057C10.126 26.6575 10.179 26.4833 10.179 26.3049C10.179 26.0587 10.2769 25.8226 10.4509 25.6484C10.625 25.4743 10.8613 25.3765 11.1074 25.3765C11.3538 25.3765 11.5898 25.4743 11.7642 25.6484C11.9382 25.8226 12.0361 26.0587 12.0361 26.3049C12.0361 27.0343 11.7463 27.7338 11.2305 28.2495C10.7148 28.7652 10.0154 29.0549 9.28613 29.0549C8.55664 29.0549 7.85718 28.7652 7.34155 28.2495C6.82568 27.7338 6.53613 27.0343 6.53613 26.3049L6.53809 26.3059ZM4.67993 5.65991C4.43115 5.65991 4.19263 5.56116 4.01685 5.38525C3.84082 5.20935 3.74194 4.9707 3.74194 4.72192C3.74194 4.47314 3.84082 4.2345 4.01685 4.05859C4.19263 3.88269 4.43115 3.78394 4.67993 3.78394L24.5801 3.78394C24.8289 3.78394 25.0674 3.88269 25.2434 4.05859C25.4192 4.2345 25.5181 4.47314 25.5181 4.72192C25.5181 4.9707 25.4192 5.20935 25.2434 5.38525C25.0674 5.56116 24.8289 5.65991 24.5801 5.65991L4.67993 5.65991Z" fill="#F16D7F" fill-opacity="1.000000" fill-rule="nonzero"/>
</svg>
