<svg width="16.000000" height="15.250000" viewBox="0 0 16 15.25" fill="none" xmlns="http://www.w3.org/2000/svg" xmlns:xlink="http://www.w3.org/1999/xlink">
	<desc>
			Created with Pixso.
	</desc>
	<defs/>
	<path id="Vector" d="M14.1816 6.31812C15.0264 7.16187 15.5 8.30664 15.5 9.5L15.5 14.75L12.5 14.75L12.5 9.5C12.5 9.10229 12.3418 8.7207 12.0605 8.43945C11.7793 8.15796 11.3975 8 11 8C10.6025 8 10.2207 8.15796 9.93945 8.43945C9.6582 8.7207 9.5 9.10229 9.5 9.5L9.5 14.75L6.5 14.75L6.5 9.5C6.5 8.30664 6.97363 7.16187 7.81836 6.31812C8.66211 5.47412 9.80664 5 11 5C12.1934 5 13.3379 5.47412 14.1816 6.31812Z" stroke="#FFFFFF" stroke-opacity="1.000000" stroke-width="1.000000" stroke-linejoin="round"/>
	<path id="Vector" d="M3.5 5.75L3.5 14.75L0.5 14.75L0.5 5.75L3.5 5.75Z" stroke="#FFFFFF" stroke-opacity="1.000000" stroke-width="1.000000" stroke-linejoin="round"/>
	<path id="Vector" d="M2 3.5C1.17188 3.5 0.5 2.82837 0.5 2C0.5 1.17163 1.17188 0.5 2 0.5C2.82812 0.5 3.5 1.17163 3.5 2C3.5 2.82837 2.82812 3.5 2 3.5Z" stroke="#FFFFFF" stroke-opacity="1.000000" stroke-width="1.000000" stroke-linejoin="round"/>
</svg>
