<svg width="47.022949" height="34.926758" viewBox="0 0 47.0229 34.9268" fill="none" xmlns="http://www.w3.org/2000/svg"
     xmlns:xlink="http://www.w3.org/1999/xlink">
    <desc>
        Created with Pixso.
    </desc>
    <defs/>
    <path id="Forma 1"
          d="M42.3743 8.53564C41.1578 8.52335 39.9862 8.9935 39.1155 9.84302C38.2449 10.6925 37.746 11.8522 37.7283 13.0686C37.7314 13.7086 37.8724 14.3405 38.1416 14.9211C38.4109 15.5018 38.802 16.0176 39.2883 16.4336L33.4283 18.4888L25.0894 8.80566C25.9846 8.50693 26.7644 7.93646 27.3201 7.17358C27.8757 6.41071 28.1797 5.49332 28.1893 4.54956C28.1642 3.33432 27.6637 2.17743 26.7953 1.3269C25.927 0.476379 24.7599 0 23.5443 0C22.3289 0 21.1617 0.476379 20.2933 1.3269C19.425 2.17743 18.9246 3.33432 18.8993 4.54956C18.9091 5.48395 19.2067 6.39273 19.7515 7.15186C20.2964 7.91098 21.0621 8.48367 21.9443 8.79175L13.5923 18.4917L7.73438 16.4368C8.22046 16.0206 8.61121 15.5045 8.88 14.9238C9.14893 14.3432 9.28955 13.7116 9.29236 13.0718C9.31543 12.195 9.08984 11.3297 8.64172 10.5757C8.19373 9.82172 7.54138 9.2099 6.76025 8.81104C5.97925 8.41217 5.1012 8.2424 4.22766 8.32153C3.35425 8.40067 2.521 8.72556 1.82422 9.2583C1.12756 9.79105 0.595825 10.5101 0.290527 11.3323C-0.0146484 12.1545 -0.0810547 13.0462 0.0991211 13.9045C0.279419 14.7629 0.698853 15.5526 1.30896 16.1826C1.91919 16.8126 2.69531 17.2571 3.54736 17.4646L3.54736 29.7556C3.55481 29.8376 3.57153 29.9184 3.59729 29.9966C3.56445 30.1233 3.54773 30.2538 3.54736 30.3848C3.54736 34.7968 21.4663 34.9268 23.5093 34.9268C25.5524 34.9268 43.4713 34.7978 43.4713 30.3848C43.4706 30.2539 43.4537 30.1234 43.4213 29.9966C43.449 29.9189 43.4658 29.8379 43.4713 29.7556L43.4713 17.4646C44.5703 17.2244 45.54 16.5828 46.1907 15.6653C46.8414 14.7478 47.1262 13.6204 46.9895 12.5039C46.8528 11.3874 46.3043 10.3621 45.4514 9.62866C44.5986 8.89526 43.5027 8.50653 42.3783 8.53857L42.3743 8.53564ZM21.1553 4.55176C21.1438 4.07755 21.2739 3.61063 21.5289 3.21069C21.7841 2.81076 22.1525 2.49591 22.5873 2.3064C23.0222 2.11688 23.5037 2.06131 23.9702 2.14673C24.4369 2.23215 24.8674 2.45462 25.2069 2.78589C25.5465 3.11716 25.7795 3.54199 25.8763 4.00635C25.9733 4.4707 25.9296 4.95346 25.7507 5.39282C25.572 5.83218 25.2664 6.20831 24.8728 6.47314C24.4794 6.73798 24.0157 6.87949 23.5414 6.87964C22.9167 6.88605 22.3148 6.64481 21.8676 6.2085C21.4204 5.77219 21.1643 5.17645 21.1553 4.55176ZM13.5653 20.8276C13.7823 20.9026 14.0167 20.9113 14.2385 20.8525C14.4604 20.7938 14.6599 20.6701 14.8113 20.4976L23.5114 10.3977L32.2113 20.4976C32.3625 20.6702 32.5618 20.7938 32.7834 20.8528C33.0052 20.9117 33.2394 20.9034 33.4563 20.8286L41.2144 18.1038L41.2144 28.0408C36.3295 25.9188 25.1053 25.8406 23.5143 25.8406C21.9233 25.8406 10.6954 25.9198 5.81433 28.0408L5.81433 18.1038L13.5653 20.8276ZM23.5083 32.7166C14.8083 32.7166 9.2594 31.7057 6.95129 30.8547C6.60022 30.7373 6.26453 30.578 5.95129 30.3806C6.67334 29.8596 9.01245 29.1487 12.9174 28.6487C19.9528 27.844 27.0569 27.844 34.0923 28.6487C37.9923 29.1487 40.3374 29.8596 41.0574 30.3806C40.7468 30.5794 40.4125 30.7388 40.0624 30.8547C37.7604 31.7037 32.2163 32.7166 23.5083 32.7166ZM2.26135 13.0686C2.25024 12.5945 2.38074 12.1279 2.63599 11.7283C2.89136 11.3286 3.26001 11.0139 3.69482 10.8247C4.12976 10.6355 4.61108 10.5801 5.07751 10.6658C5.54407 10.7514 5.97449 10.9743 6.31372 11.3057C6.65308 11.637 6.88586 12.0618 6.98254 12.5261C7.07935 12.9904 7.0354 13.4731 6.85657 13.9124C6.67773 14.3516 6.37207 14.7277 5.97852 14.9924C5.58508 15.2572 5.1217 15.3986 4.64734 15.3987C4.02222 15.4054 3.41992 15.1638 2.97253 14.7271C2.52527 14.2903 2.26953 13.6938 2.26135 13.0686ZM42.3743 15.3987C41.9164 15.3875 41.4719 15.2414 41.0964 14.9788C40.7211 14.7162 40.4314 14.3488 40.2638 13.9224C40.0962 13.496 40.0581 13.0297 40.1542 12.5818C40.2504 12.1339 40.4764 11.7241 40.8042 11.4041C41.1321 11.084 41.5469 10.8677 41.9969 10.7822C42.4471 10.6968 42.9124 10.7459 43.3346 10.9236C43.757 11.1013 44.1174 11.3997 44.371 11.7812C44.6246 12.1628 44.7601 12.6105 44.7604 13.0686C44.7517 13.6935 44.4957 14.2896 44.0485 14.7261C43.6013 15.1626 42.9993 15.4041 42.3743 15.3977L42.3743 15.3987Z"
          fill="#F16D7F" fill-opacity="1.000000" fill-rule="nonzero"/>
</svg>
