<svg width="26.001587" height="26.791992" viewBox="0 0 26.0016 26.792" fill="none" xmlns="http://www.w3.org/2000/svg" xmlns:xlink="http://www.w3.org/1999/xlink">
	<desc>
			Created with Pixso.
	</desc>
	<defs/>
	<path id="Forma 1" d="M18.0615 17.4149C19.6732 15.6549 20.6301 13.3938 20.7717 11.0115C20.9132 8.62927 20.2308 6.27075 18.8389 4.33228C17.447 2.39368 15.4304 0.993042 13.1279 0.365723C10.8253 -0.261719 8.37708 -0.0777588 6.19409 0.886719C4.01123 1.85107 2.22656 3.53735 1.14001 5.66211C0.0533447 7.78687 -0.269043 10.2208 0.226929 12.5552C0.7229 14.8896 2.00696 16.9823 3.86353 18.4818C5.72009 19.9813 8.03613 20.7963 10.4226 20.7899C12.6749 20.7931 14.8665 20.0591 16.6626 18.7L24.4105 26.507C24.4961 26.5961 24.5985 26.6671 24.7118 26.7161C24.8252 26.765 24.9471 26.7908 25.0706 26.792C25.1942 26.7924 25.3167 26.7672 25.4303 26.7183C25.5438 26.6692 25.646 26.5973 25.7306 26.507C25.9045 26.326 26.0016 26.0848 26.0016 25.834C26.0016 25.583 25.9045 25.3418 25.7306 25.161L18.0615 17.4149ZM1.88855 10.2899C1.90137 8.60474 2.41284 6.96094 3.35852 5.56592C4.3042 4.1709 5.64172 3.08704 7.20239 2.45105C8.76306 1.81506 10.4772 1.65527 12.1285 1.99207C13.7799 2.32874 15.2946 3.14685 16.4817 4.34314C17.6688 5.53943 18.4752 7.0603 18.7992 8.71423C19.1232 10.3682 18.9502 12.0809 18.3022 13.6367C17.6542 15.1925 16.5601 16.5216 15.1578 17.4564C13.7555 18.3914 12.1079 18.8901 10.4226 18.89C8.15112 18.8792 5.97681 17.9674 4.37683 16.3551C2.77686 14.7428 1.88196 12.5614 1.88855 10.2899Z" fill="#E8E8E8" fill-opacity="1.000000" fill-rule="nonzero"/>
</svg>
