<svg width="70.000000" height="70.000000" viewBox="0 0 70 70" fill="none" xmlns="http://www.w3.org/2000/svg" xmlns:xlink="http://www.w3.org/1999/xlink">
	<desc>
			Created with Pixso.
	</desc>
	<defs/>
	<rect rx="15.000000" width="70.000000" height="70.000000" fill="#F25822" fill-opacity="0.250000"/>
	<path d="M23.7778 25.7778L23.7778 45.2222L46 45.2222L46 25.7778L23.7778 25.7778ZM22.3889 23L47.3889 23C47.7572 23 48.1105 23.1463 48.371 23.4068C48.6314 23.6672 48.7778 24.0205 48.7778 24.3889L48.7778 46.6111C48.7778 46.9795 48.6314 47.3328 48.371 47.5932C48.1105 47.8537 47.7572 48 47.3889 48L22.3889 48C22.0205 48 21.6672 47.8537 21.4068 47.5932C21.1463 47.3328 21 46.9795 21 46.6111L21 24.3889C21 24.0205 21.1463 23.6672 21.4068 23.4068C21.6672 23.1463 22.0205 23 22.3889 23ZM38.7681 32.4347L36.2778 29.9445L43.2222 29.9445L43.2222 36.8889L40.7319 34.3986L35.3653 39.7653L32.4194 36.8195L28.4903 40.7472L26.5264 38.7833L32.4194 32.8903L35.3653 35.8375L38.7681 32.4347Z" fill="#F25822" fill-opacity="1.000000" fill-rule="nonzero"/>
</svg>
