<svg width="70.000000" height="70.000000" viewBox="0 0 70 70" fill="none" xmlns="http://www.w3.org/2000/svg" xmlns:xlink="http://www.w3.org/1999/xlink">
	<desc>
			Created with Pixso.
	</desc>
	<defs/>
	<rect rx="15.000000" width="70.000000" height="70.000000" fill="#FFCD1D" fill-opacity="0.240000"/>
	<g opacity="0.000000">
		<path d="M23 23L48 23L48 48L23 48L23 23Z" fill="#FFC700" fill-opacity="1.000000" fill-rule="evenodd"/>
	</g>
	<path d="M36.4062 45.9167C35.9032 45.9161 35.4206 45.7178 35.0624 45.3646L28.3853 38.6771C28.214 38.5067 28.1072 38.2821 28.0833 38.0417L27.1666 28.3021C27.1526 28.1495 27.1724 27.9957 27.2246 27.8517C27.2768 27.7076 27.3602 27.5769 27.4687 27.4688C27.5768 27.3602 27.7076 27.2769 27.8516 27.2247C27.9957 27.1724 28.1494 27.1526 28.302 27.1667L38.0416 28.0833C38.282 28.1073 38.5067 28.2141 38.677 28.3854L45.3645 35.0625C45.7188 35.4178 45.9178 35.8992 45.9178 36.4011C45.9178 36.9029 45.7188 37.3842 45.3645 37.7396L37.7395 45.3646C37.3853 45.7172 36.906 45.9156 36.4062 45.9167ZM30.1562 37.4688L36.4062 43.7188L43.7499 36.375L37.4999 30.125L29.3645 29.3646L30.1562 37.4688Z" fill="#FFC700" fill-opacity="1.000000" fill-rule="nonzero"/>
	<path d="M35.5 33.9375C35.5 34.8004 34.8004 35.5 33.9375 35.5C33.0746 35.5 32.375 34.8004 32.375 33.9375C32.375 33.0746 33.0746 32.375 33.9375 32.375C34.8004 32.375 35.5 33.0746 35.5 33.9375Z" fill="#FFC700" fill-opacity="1.000000" fill-rule="evenodd"/>
</svg>
