<svg width="31.450562" height="32.000000" viewBox="0 0 31.4506 32" fill="none" xmlns="http://www.w3.org/2000/svg"
     xmlns:xlink="http://www.w3.org/1999/xlink">
    <desc>
        Created with Pixso.
    </desc>
    <defs>
        <clipPath id="clip190_1618">
            <rect id="pinterest-p-brands 1" width="11.919281" height="16.000000"
                  transform="translate(9.932739 8.000000)" fill="white" fill-opacity="0"/>
        </clipPath>
    </defs>
    <path id="Rectangle 14" d="M0 0L31.4506 0L31.4506 32L0 32L0 0Z" fill="#FFFFFF" fill-opacity="1.000000"
          fill-rule="evenodd"/>
    <rect id="pinterest-p-brands 1" width="11.919281" height="16.000000" transform="translate(9.932739 8.000000)"
          fill="#FFFFFF" fill-opacity="0"/>
    <g clip-path="url(#clip190_1618)">
        <path id="Vector"
              d="M16.2649 8.20312C13.0802 8.20312 9.93274 10.3406 9.93274 13.8C9.93274 16 11.1619 17.25 11.9069 17.25C12.2141 17.25 12.3911 16.3875 12.3911 16.1437C12.3911 15.8531 11.6554 15.2344 11.6554 14.025C11.6554 11.5125 13.5551 9.73126 16.0134 9.73126C18.1272 9.73126 19.6917 10.9406 19.6917 13.1625C19.6917 14.8219 19.0305 17.9344 16.8888 17.9344C16.1158 17.9344 15.4547 17.3719 15.4547 16.5656C15.4547 15.3844 16.2742 14.2406 16.2742 13.0219C16.2742 10.9531 13.3595 11.3281 13.3595 13.8281C13.3595 14.3531 13.4247 14.9344 13.6575 15.4125C13.2291 17.2687 12.3539 20.0344 12.3539 21.9469C12.3539 22.5375 12.4376 23.1187 12.4935 23.7094C12.599 23.8281 12.5463 23.8156 12.7076 23.7563C14.2721 21.6 14.2162 21.1781 14.924 18.3563C15.3058 19.0875 16.2928 19.4813 17.075 19.4813C20.3715 19.4813 21.8521 16.2469 21.8521 13.3312C21.8521 10.2281 19.1888 8.20312 16.2649 8.20312Z"
              fill="#000000" fill-opacity="1.000000" fill-rule="nonzero"/>
    </g>
</svg>
