<svg width="26.004950" height="23.974243" viewBox="0 0 26.0049 23.9742" fill="none" xmlns="http://www.w3.org/2000/svg" xmlns:xlink="http://www.w3.org/1999/xlink">
	<desc>
			Created with Pixso.
	</desc>
	<defs/>
	<path d="M21.4086 22.9742L21.2962 22.9742C20.6871 22.9742 20.1753 22.4746 20.1311 21.8369C20.0867 21.1682 20.5751 20.5861 21.2202 20.5421C21.2456 20.5404 21.2721 20.5396 21.2982 20.5396C21.9152 20.5396 22.4319 21.0294 22.4778 21.6562C22.4896 21.9047 22.449 22.2589 22.1936 22.5514L22.1877 22.5582L22.1819 22.5651C21.9852 22.7987 21.7184 22.9396 21.4086 22.9742ZM7.67651 22.9679C7.02594 22.9679 6.4967 22.4249 6.4967 21.7576C6.4967 21.0907 7.02594 20.5481 7.67651 20.5481C8.32709 20.5481 8.85632 21.0907 8.85632 21.7576C8.85632 22.4249 8.32709 22.9679 7.67651 22.9679Z" fill="#FFFFFF" fill-opacity="1.000000" fill-rule="nonzero"/>
	<path d="M21.3329 21.9742C21.378 21.9629 21.3993 21.9419 21.417 21.9209C21.4247 21.9117 21.4326 21.9026 21.4404 21.8936C21.4769 21.8518 21.4802 21.7633 21.4794 21.7185C21.4662 21.6124 21.3754 21.5396 21.2982 21.5396C21.2944 21.5396 21.2906 21.5397 21.2882 21.5398C21.2101 21.5452 21.1223 21.6489 21.1289 21.7705C21.1382 21.8873 21.2244 21.9742 21.2962 21.9742L21.3329 21.9742ZM7.67651 21.9679C7.7757 21.9679 7.85632 21.8735 7.85632 21.7576C7.85632 21.6421 7.7757 21.5481 7.67651 21.5481C7.57739 21.5481 7.4967 21.6421 7.4967 21.7576C7.4967 21.8735 7.57739 21.9679 7.67651 21.9679ZM21.4564 23.9742C21.4087 23.9742 21.3448 23.9742 21.2962 23.9742C20.1586 23.9742 19.2136 23.0625 19.1335 21.906C19.0534 20.7009 19.9507 19.6263 21.1522 19.5444C21.2011 19.5411 21.2498 19.5396 21.2982 19.5396C22.4369 19.5396 23.3983 20.4404 23.476 21.5964C23.5075 22.1995 23.3311 22.7692 22.9468 23.2092C22.5625 23.6655 22.0333 23.9257 21.4564 23.9742ZM7.67651 23.9679C6.47229 23.9679 5.4967 22.9789 5.4967 21.7576C5.4967 20.5371 6.47229 19.5481 7.67651 19.5481C8.88068 19.5481 9.85632 20.5371 9.85632 21.7576C9.85632 22.9789 8.88068 23.9679 7.67651 23.9679ZM20.6554 17.1018L8.59003 17.1018C8.1571 17.1018 7.77283 16.8085 7.66028 16.3855L3.7345 1.95569L0.978699 1.95569C0.450378 1.95569 0.0175171 1.5166 0.0175171 0.978394C0.0175171 0.44104 0.450378 0.000976562 0.978699 0.000976562L4.4563 0.000976562C4.88831 0.000976562 5.27258 0.294312 5.38507 0.718262L9.31091 15.1471L20.0146 15.1471L23.5714 6.8418L11.7148 6.8418C11.1856 6.8418 10.7527 6.40173 10.7527 5.8645C10.7527 5.32715 11.1856 4.88708 11.7148 4.88708L25.0456 4.88708C25.366 4.88708 25.6711 5.04993 25.8466 5.32715C26.023 5.60339 26.0554 5.94543 25.9267 6.255L21.5365 16.515C21.3763 16.8733 21.0397 17.1018 20.6554 17.1018Z" fill="#FFFFFF" fill-opacity="1.000000" fill-rule="nonzero"/>
	<path d="M21.3329 21.9742C21.378 21.9629 21.3993 21.9419 21.417 21.9209C21.4247 21.9117 21.4326 21.9026 21.4404 21.8936C21.4769 21.8518 21.4802 21.7633 21.4794 21.7185C21.4662 21.6124 21.3754 21.5396 21.2982 21.5396C21.2944 21.5396 21.2906 21.5397 21.2882 21.5398C21.2101 21.5452 21.1223 21.6489 21.1289 21.7705C21.1382 21.8873 21.2244 21.9742 21.2962 21.9742L21.3329 21.9742ZM7.67651 21.9679C7.7757 21.9679 7.85632 21.8735 7.85632 21.7576C7.85632 21.6421 7.7757 21.5481 7.67651 21.5481C7.57739 21.5481 7.4967 21.6421 7.4967 21.7576C7.4967 21.8735 7.57739 21.9679 7.67651 21.9679ZM21.4564 23.9742C21.4087 23.9742 21.3448 23.9742 21.2962 23.9742C20.1586 23.9742 19.2136 23.0625 19.1335 21.906C19.0534 20.7009 19.9507 19.6263 21.1522 19.5444C21.2011 19.5411 21.2498 19.5396 21.2982 19.5396C22.4369 19.5396 23.3983 20.4404 23.476 21.5964C23.5075 22.1995 23.3311 22.7692 22.9468 23.2092C22.5625 23.6655 22.0333 23.9257 21.4564 23.9742ZM7.67651 23.9679C6.47229 23.9679 5.4967 22.9789 5.4967 21.7576C5.4967 20.5371 6.47229 19.5481 7.67651 19.5481C8.88068 19.5481 9.85632 20.5371 9.85632 21.7576C9.85632 22.9789 8.88068 23.9679 7.67651 23.9679ZM20.6554 17.1018L8.59003 17.1018C8.1571 17.1018 7.77283 16.8085 7.66028 16.3855L3.7345 1.95569L0.978699 1.95569C0.450378 1.95569 0.0175171 1.5166 0.0175171 0.978394C0.0175171 0.44104 0.450378 0.000976562 0.978699 0.000976562L4.4563 0.000976562C4.88831 0.000976562 5.27258 0.294312 5.38507 0.718262L9.31091 15.1471L20.0146 15.1471L23.5714 6.8418L11.7148 6.8418C11.1856 6.8418 10.7527 6.40173 10.7527 5.8645C10.7527 5.32715 11.1856 4.88708 11.7148 4.88708L25.0456 4.88708C25.366 4.88708 25.6711 5.04993 25.8466 5.32715C26.023 5.60339 26.0554 5.94543 25.9267 6.255L21.5365 16.515C21.3763 16.8733 21.0397 17.1018 20.6554 17.1018Z" fill="#FFFFFF" fill-opacity="1.000000" fill-rule="nonzero"/>
</svg>
