<svg width="19.390625" height="16.000000" viewBox="0 0 19.3906 16" fill="none" xmlns="http://www.w3.org/2000/svg" xmlns:xlink="http://www.w3.org/1999/xlink">
	<desc>
			Created with Pixso.
	</desc>
	<defs/>
	<path id="Vector" d="M16.2656 1.78735C15.7627 1.2085 15.0938 0.79834 14.3496 0.612061C13.6045 0.425781 12.8213 0.472656 12.1045 0.746094C11.3877 1.01978 10.7725 1.50684 10.3418 2.1416C9.91113 2.77637 9.68555 3.52808 9.69531 4.29517L9.69531 5.1311C8.22656 5.16919 6.77051 4.84351 5.45801 4.18286C4.14551 3.52197 3.0166 2.54688 2.17188 1.34424C2.17188 1.34424 -1.17188 8.86792 6.35156 12.2117C4.62988 13.3804 2.5791 13.9663 0.5 13.8835C8.02344 18.0632 17.2188 13.8835 17.2188 4.27026C17.2178 4.03735 17.1963 3.80493 17.1523 3.57642C18.0049 2.73486 18.6074 1.67261 18.8906 0.508301C18.0908 1.073 17.2041 1.50488 16.2656 1.78735Z" stroke="#FFFFFF" stroke-opacity="1.000000" stroke-width="1.000000" stroke-linejoin="round"/>
</svg>
