<svg xmlns="http://www.w3.org/2000/svg" xmlns:xlink="http://www.w3.org/1999/xlink" width="32" height="29" viewBox="0 0 32 29"><defs><path id="zvx0a" d="M1181 41.18c0-.65.53-1.18 1.18-1.18h4.28c.54 0 1.01.35 1.15.87l4.83 17.45h13.18l4.38-10.05h-14.6c-.65 0-1.18-.53-1.18-1.18 0-.65.53-1.18 1.18-1.18h16.41c.4 0 .77.2.99.53.22.34.26.75.1 1.12l-5.4 12.42c-.2.43-.62.7-1.1.7h-14.85c-.53 0-1-.35-1.14-.86l-4.83-17.46h-3.4c-.65 0-1.18-.53-1.18-1.18zm6.75 25.14a2.68 2.68 0 1 1 5.36.01 2.68 2.68 0 0 1-5.36-.01zm16.78.18a2.68 2.68 0 0 1 5.35-.38 2.68 2.68 0 0 1-2.49 2.88h-.2c-1.4 0-2.56-1.1-2.66-2.5z"/></defs><g><g transform="translate(-1181 -40)"><use fill="#222" xlink:href="#zvx0a"/></g></g></svg>