<svg width="39.985962" height="39.923828" viewBox="0 0 39.986 39.9238" fill="none" xmlns="http://www.w3.org/2000/svg" xmlns:xlink="http://www.w3.org/1999/xlink">
	<desc>
			Created with Pixso.
	</desc>
	<defs/>
	<path id="Forma 1" d="M19.994 37.0239L16.5231 39.9238L14.235 36.0039L9.995 37.5159L9.17297 33.0359L4.68005 32.991L5.41199 28.491L1.20398 26.8909L3.41394 22.925L0 19.96L3.41199 16.9929L1.20203 13.0278L5.41101 11.428L4.67798 6.93286L9.172 6.88892L9.99402 2.40894L14.234 3.91992L16.522 0L19.993 2.8999L23.464 0L25.7531 3.9209L29.993 2.40894L30.8141 6.88989L35.308 6.93481L34.576 11.4299L38.7841 13.03L36.574 16.9958L39.986 19.9609L36.574 22.928L38.7831 26.894L34.574 28.4939L35.307 32.988L30.812 33.033L29.9911 37.5139L25.7531 36.0029L23.464 39.9229L19.994 37.0239ZM21.2001 35.541L22.9611 37.012L24.1219 35.022L24.9139 33.666L26.382 34.189L28.5331 34.957L28.9501 32.6838L29.235 31.1289L30.796 31.113L33.078 31.092L32.7059 28.8098L32.452 27.25L33.911 26.696L36.045 25.8828L34.9249 23.873L34.1591 22.498L35.3419 21.4709L37.076 19.9609L35.343 18.4609L34.16 17.4319L34.926 16.0559L36.047 14.0449L33.913 13.2339L32.454 12.6809L32.709 11.1208L33.0809 8.83984L30.799 8.81689L29.239 8.80103L28.954 7.24683L28.538 4.97388L26.386 5.74097L24.9181 6.26392L24.125 4.90698L22.963 2.91699L21.201 4.38794L19.996 5.39282L18.791 4.38794L17.03 2.91699L15.869 4.90601L15.077 6.26294L13.608 5.73999L11.458 4.97192L11.0399 7.24585L10.755 8.80005L9.19495 8.81592L6.91394 8.83789L7.28601 11.1199L7.53992 12.678L6.08093 13.2329L3.94592 14.0439L5.06702 16.0549L5.83301 17.4299L4.65002 18.459L2.91602 19.967L4.64905 21.4739L5.83191 22.5029L5.06604 23.8779L3.94495 25.8879L6.078 26.698L7.53796 27.2529L7.28308 28.812L6.91199 31.0959L9.19299 31.1189L10.7531 31.135L11.038 32.6899L11.455 34.9619L13.6071 34.1948L15.076 33.6719L15.868 35.0288L17.03 37.019L18.791 35.5479L19.996 34.543L21.2001 35.541ZM21.318 23.02C21.318 20.093 22.8829 18.4648 24.777 18.4648C26.783 18.4648 28.077 20.0279 28.077 22.7949C28.077 25.8539 26.4919 27.3718 24.662 27.3718C22.8829 27.3718 21.338 25.922 21.318 23.02ZM22.839 22.9319C22.816 24.7829 23.521 26.1899 24.7111 26.1899C25.988 26.1899 26.5609 24.8049 26.5609 22.8899C26.5609 21.1249 26.054 19.6528 24.7111 19.6528C23.5 19.6488 22.839 21.1029 22.839 22.9309L22.839 22.9319ZM15.194 27.332L23.609 12.613L24.8419 12.613L16.427 27.332L15.194 27.332ZM11.979 16.99C11.979 14.09 13.542 12.458 15.437 12.458C17.437 12.458 18.7631 14.022 18.7631 16.79C18.7631 19.8481 17.177 21.365 15.327 21.365C13.5441 21.365 12 19.915 11.979 16.991L11.979 16.99ZM13.521 16.9238C13.4771 18.7748 14.162 20.1809 15.371 20.1829C16.6479 20.1829 17.2211 18.7988 17.2211 16.8828C17.2211 15.1168 16.714 13.645 15.371 13.645C14.162 13.642 13.521 15.092 13.521 16.925L13.521 16.9238Z" fill="#F16D7F" fill-opacity="1.000000" fill-rule="nonzero"/>
</svg>
