<svg width="29.000000" height="29.000000" viewBox="0 0 29 29" fill="none" xmlns="http://www.w3.org/2000/svg" xmlns:xlink="http://www.w3.org/1999/xlink">
	<desc>
			Created with Pixso.
	</desc>
	<defs/>
	<path id="Forma 1" d="M14.5 19.937C19 19.937 22.656 15.464 22.656 9.96802C22.656 4.47205 19 0 14.5 0C13.3631 0.0217285 12.2463 0.303345 11.2351 0.823364C10.2239 1.34338 9.34506 2.08789 8.66602 3C7.12662 4.99573 6.3082 7.45386 6.34399 9.974C6.34399 15.465 10 19.937 14.5 19.937ZM14.5 1.81299C18 1.81299 20.844 5.47205 20.844 9.96899C20.844 14.4659 17.998 18.125 14.5 18.125C11.002 18.125 8.15604 14.465 8.15503 9.96899C8.15402 5.47302 11 1.81299 14.5 1.81299ZM20.844 18.125C20.6036 18.125 20.373 18.2205 20.203 18.3905C20.033 18.5605 19.9375 18.7911 19.9375 19.0315C19.9375 19.272 20.033 19.5024 20.203 19.6725C20.373 19.8425 20.6036 19.938 20.844 19.938C22.526 19.9398 24.1385 20.6089 25.3279 21.7982C26.5172 22.9875 27.1861 24.6001 27.188 26.282C27.1875 26.5221 27.0918 26.7523 26.922 26.922C26.7522 27.0918 26.5221 27.1875 26.282 27.188L2.71997 27.188C2.47986 27.1875 2.24976 27.0918 2.07996 26.922C1.91016 26.7523 1.81448 26.5221 1.81396 26.282C1.81607 24.6001 2.48517 22.9877 3.67444 21.7985C4.86371 20.6091 6.47607 19.9401 8.15796 19.938C8.39825 19.938 8.62866 19.8425 8.79858 19.6726C8.96851 19.5027 9.06396 19.2723 9.06396 19.032C9.06396 18.7917 8.96851 18.5613 8.79858 18.3914C8.62866 18.2214 8.39825 18.126 8.15796 18.126C5.99542 18.1278 3.922 18.9875 2.39258 20.5164C0.863159 22.0453 0.00265503 24.1184 0 26.281C0.000793457 27.0018 0.287506 27.693 0.797241 28.2028C1.30698 28.7125 1.99811 28.9993 2.71899 29L26.282 29C27.0027 28.9989 27.6936 28.7122 28.2031 28.2024C28.7126 27.6926 28.9992 27.0017 29 26.281C28.9973 24.1187 28.1372 22.0458 26.6083 20.5167C25.0793 18.9878 23.0063 18.1277 20.844 18.125Z" fill="#E8E8E8" fill-opacity="1.000000" fill-rule="nonzero"/>
</svg>
