<svg width="19.000000" height="13.648438" viewBox="0 0 19 13.6484" fill="none" xmlns="http://www.w3.org/2000/svg" xmlns:xlink="http://www.w3.org/1999/xlink">
	<desc>
			Created with Pixso.
	</desc>
	<defs/>
	<path id="Vector" d="M17.5498 1.44849C17.2705 1.16113 16.9209 0.952637 16.5361 0.843506C15.1289 0.5 9.5 0.5 9.5 0.5C9.5 0.5 3.87109 0.5 2.46387 0.876465C2.0791 0.985352 1.72949 1.19409 1.4502 1.4812C1.17188 1.76855 0.973633 2.12427 0.876953 2.5127C0.619141 3.94067 0.493164 5.3894 0.5 6.84058C0.491211 8.30273 0.617188 9.76245 0.876953 11.2012C0.984375 11.5774 1.18652 11.9197 1.46387 12.1948C1.74219 12.47 2.08691 12.6689 2.46387 12.772C3.87109 13.1484 9.5 13.1484 9.5 13.1484C9.5 13.1484 15.1289 13.1484 16.5361 12.772C16.9209 12.6631 17.2705 12.4543 17.5498 12.1672C17.8281 11.8799 18.0264 11.5242 18.123 11.1357C18.3789 9.71851 18.5049 8.28076 18.5 6.84058C18.5088 5.37842 18.3828 3.9187 18.123 2.47998C18.0264 2.09155 17.8281 1.73584 17.5498 1.44849Z" stroke="#FFFFFF" stroke-opacity="1.000000" stroke-width="1.000000" stroke-linejoin="round"/>
	<path id="Vector" d="M12.3633 6.84033L7.65918 4.16504L7.65918 9.51562L12.3633 6.84033Z" stroke="#FFFFFF" stroke-opacity="1.000000" stroke-width="1.000000" stroke-linejoin="round"/>
</svg>
