<svg width="31.450562" height="32.000000" viewBox="0 0 31.4506 32" fill="none" xmlns="http://www.w3.org/2000/svg" xmlns:xlink="http://www.w3.org/1999/xlink">
	<desc>
			Created with Pixso.
	</desc>
	<defs>
		<clipPath id="clip190_1614">
			<rect id="twitter-brands 1" width="15.892374" height="16.000000" transform="translate(7.946289 8.000000)" fill="white" fill-opacity="0"/>
		</clipPath>
	</defs>
	<path id="Rectangle 14" d="M0 0L31.4506 0L31.4506 32L0 32L0 0Z" fill="#FFFFFF" fill-opacity="1.000000" fill-rule="evenodd"/>
	<rect id="twitter-brands 1" width="15.892374" height="16.000000" transform="translate(7.946289 8.000000)" fill="#FFFFFF" fill-opacity="0"/>
	<g clip-path="url(#clip190_1614)">
		<path id="Vector" d="M22.2051 12.741C22.2151 12.8831 22.2151 13.0253 22.2151 13.1674C22.2151 17.5024 18.9379 22.4973 12.948 22.4973C11.1025 22.4973 9.38831 21.9593 7.94629 21.0253C8.2085 21.0557 8.46057 21.0659 8.73279 21.0659C10.2555 21.0659 11.6572 20.5481 12.7765 19.6649C11.3446 19.6344 10.1445 18.6902 9.73108 17.3907C9.93286 17.4212 10.1345 17.4415 10.3463 17.4415C10.6387 17.4415 10.9312 17.4009 11.2034 17.3298C9.71094 17.0253 8.59167 15.7055 8.59167 14.1116L8.59167 14.071C9.02527 14.3146 9.52942 14.4669 10.0638 14.4872C9.18652 13.8983 8.61182 12.8933 8.61182 11.7562C8.61182 11.1471 8.77307 10.5887 9.05554 10.1014C10.6588 12.0912 13.069 13.3907 15.7714 13.5329C15.7211 13.2892 15.6908 13.0354 15.6908 12.7816C15.6908 10.9745 17.1428 9.50244 18.9479 9.50244C19.8857 9.50244 20.7328 9.89838 21.3278 10.538C22.0638 10.3958 22.7697 10.1217 23.3949 9.74609C23.1528 10.5075 22.6385 11.1471 21.963 11.5532C22.6184 11.4821 23.2538 11.2994 23.8386 11.0456C23.395 11.6953 22.8403 12.274 22.2051 12.741Z" fill="#000000" fill-opacity="1.000000" fill-rule="nonzero"/>
	</g>
</svg>
