<svg width="31.450562" height="32.000000" viewBox="0 0 31.4506 32" fill="none" xmlns="http://www.w3.org/2000/svg" xmlns:xlink="http://www.w3.org/1999/xlink">
	<desc>
			Created with Pixso.
	</desc>
	<defs>
		<clipPath id="clip190_1610">
			<rect id="instagram-brands 1" width="14.899101" height="17.000000" transform="translate(7.946289 8.000000)" fill="white" fill-opacity="0"/>
		</clipPath>
	</defs>
	<path id="Rectangle 14" d="M0 0L31.4506 0L31.4506 32L0 32L0 0Z" fill="#FFFFFF" fill-opacity="1.000000" fill-rule="evenodd"/>
	<rect id="instagram-brands 1" width="14.899101" height="17.000000" transform="translate(7.946289 8.000000)" fill="#FFFFFF" fill-opacity="0"/>
	<g clip-path="url(#clip190_1610)">
		<path id="Vector" d="M15.399 12.6816C13.2839 12.6816 11.5779 14.3849 11.5779 16.4966C11.5779 18.6083 13.2839 20.3117 15.399 20.3117C17.5143 20.3117 19.2203 18.6083 19.2203 16.4966C19.2203 14.3849 17.5143 12.6816 15.399 12.6816ZM15.399 18.9769C14.0322 18.9769 12.9148 17.8646 12.9148 16.4966C12.9148 15.1287 14.0289 14.0164 15.399 14.0164C16.7693 14.0164 17.8834 15.1287 17.8834 16.4966C17.8834 17.8646 16.766 18.9769 15.399 18.9769ZM20.2679 12.5255C20.2679 13.0203 19.8688 13.4154 19.3766 13.4154C18.8811 13.4154 18.4854 13.0169 18.4854 12.5255C18.4854 12.0341 18.8844 11.6357 19.3766 11.6357C19.8688 11.6357 20.2679 12.0341 20.2679 12.5255ZM22.7987 13.4286C22.7422 12.2367 22.4695 11.1808 21.5948 10.3109C20.7235 9.44098 19.666 9.1687 18.472 9.10895C17.2416 9.03922 13.5533 9.03922 12.3229 9.10895C11.1322 9.16537 10.0747 9.43765 9.19995 10.3076C8.32532 11.1775 8.05591 12.2333 7.99609 13.4254C7.92627 14.6539 7.92627 18.3361 7.99609 19.5646C8.05261 20.7566 8.32532 21.8124 9.19995 22.6824C10.0747 23.5523 11.1289 23.8246 12.3229 23.8843C13.5533 23.954 17.2416 23.954 18.472 23.8843C19.666 23.8279 20.7235 23.5556 21.5948 22.6824C22.4662 21.8124 22.7389 20.7566 22.7987 19.5646C22.8687 18.3361 22.8687 14.6572 22.7987 13.4286ZM21.2091 20.8828C20.9497 21.5335 20.4475 22.0349 19.7924 22.2972C18.8113 22.6857 16.4833 22.596 15.399 22.596C14.3149 22.596 11.9836 22.6824 11.0059 22.2972C10.354 22.0382 9.85181 21.5369 9.58911 20.8828C9.19995 19.9033 9.28979 17.579 9.28979 16.4966C9.28979 15.4142 9.20337 13.0867 9.58911 12.1105C9.84851 11.4597 10.3507 10.9583 11.0059 10.696C11.9869 10.3076 14.3149 10.3972 15.399 10.3972C16.4833 10.3972 18.8146 10.3109 19.7924 10.696C20.4442 10.955 20.9464 11.4564 21.2091 12.1105C21.5981 13.09 21.5084 15.4142 21.5084 16.4966C21.5084 17.579 21.5981 19.9066 21.2091 20.8828Z" fill="#000000" fill-opacity="1.000000" fill-rule="nonzero"/>
	</g>
</svg>
