<svg xmlns="http://www.w3.org/2000/svg" xmlns:xlink="http://www.w3.org/1999/xlink" width="23" height="22" viewBox="0 0 23 22"><defs><path id="g2b4a" d="M898 2003.9c0-.5.38-.9.85-.9h3.08c.38 0 .72.27.82.66l3.47 13.24h9.48l3.14-7.62h-10.49a.88.88 0 0 1-.85-.9c0-.5.38-.9.85-.9h11.8c.28 0 .55.15.7.4.16.26.2.57.08.86l-3.89 9.41a.85.85 0 0 1-.78.54H905.6a.86.86 0 0 1-.83-.65l-3.47-13.25h-2.44a.88.88 0 0 1-.85-.9zm4.85 19.07c0-1.12.86-2.04 1.93-2.04 1.06 0 1.93.92 1.93 2.04s-.87 2.03-1.93 2.03a1.98 1.98 0 0 1-1.93-2.03zm12.07.13c-.08-1.1.72-2.1 1.78-2.17a1.97 1.97 0 0 1 2.06 1.89 2.1 2.1 0 0 1-.47 1.48c-.34.42-.8.66-1.32.7h-.14c-1 0-1.84-.84-1.91-1.9z"/><clipPath id="g2b4b"><use fill="#fff" xlink:href="#g2b4a"/></clipPath></defs><g><g transform="translate(-898 -2003)"><use fill="#fff" xlink:href="#g2b4a"/><use fill="#fff" fill-opacity="0" stroke="#fff" stroke-linecap="round" stroke-linejoin="round" stroke-miterlimit="50" stroke-width="4" clip-path="url(&quot;#g2b4b&quot;)" xlink:href="#g2b4a"/></g></g></svg>