<svg width="14.000000" height="16.888916" viewBox="0 0 14 16.8889" fill="none" xmlns="http://www.w3.org/2000/svg" xmlns:xlink="http://www.w3.org/1999/xlink">
	<desc>
			Created with Pixso.
	</desc>
	<defs/>
	<path id="Vector" d="M7 16.3889C7 16.3889 0.5 12.0557 0.5 7C0.5 5.27612 1.18506 3.6228 2.40381 2.40381C3.62256 1.18481 5.27588 0.5 7 0.5C8.72412 0.5 10.3774 1.18481 11.5962 2.40381C12.8149 3.6228 13.5 5.27612 13.5 7C13.5 12.0557 7 16.3889 7 16.3889Z" stroke="#FFFFFF" stroke-opacity="1.000000" stroke-width="1.000000" stroke-linejoin="round"/>
	<path id="Vector" d="M7 9.16675C5.80371 9.16675 4.8335 8.19678 4.8335 7.00024C4.8335 5.80347 5.80371 4.8335 7 4.8335C8.19678 4.8335 9.16699 5.80347 9.16699 7.00024C9.16699 8.19678 8.19678 9.16675 7 9.16675Z" stroke="#FFFFFF" stroke-opacity="1.000000" stroke-width="1.000000" stroke-linejoin="round"/>
</svg>
