<svg width="13.975098" height="14.000244" viewBox="0 0 13.9751 14.0002" fill="none" xmlns="http://www.w3.org/2000/svg" xmlns:xlink="http://www.w3.org/1999/xlink">
	<desc>
			Created with Pixso.
	</desc>
	<defs/>
	<path id="Vector" d="M10.1377 3.83691C10.5747 4.27393 10.8716 4.83154 10.9897 5.43823L8.53613 2.98462C9.14307 3.10303 9.70068 3.3999 10.1377 3.83691ZM11.8696 2.10083C12.7671 2.99707 13.333 4.17188 13.4746 5.43213L8.53613 0.5C9.79688 0.640137 10.9722 1.20459 11.8696 2.10083ZM12.8535 12.2527C12.854 12.4255 12.8188 12.5969 12.7495 12.7554C12.6802 12.9138 12.5786 13.0562 12.4512 13.1731C12.3237 13.29 12.1729 13.3792 12.0093 13.4346C11.8452 13.49 11.6714 13.5105 11.4995 13.4949C9.58789 13.2874 7.75195 12.634 6.13867 11.5879C4.6377 10.6343 3.36523 9.36182 2.41162 7.86084C1.36182 6.24048 0.708496 4.39526 0.504395 2.47534C0.489258 2.30347 0.509277 2.13037 0.564453 1.96704C0.619629 1.80347 0.708008 1.65332 0.824219 1.52588C0.94043 1.39868 1.08203 1.29688 1.23975 1.22705C1.39746 1.15747 1.56836 1.12134 1.74072 1.12109L3.604 1.12109C3.90576 1.11816 4.19775 1.22485 4.42627 1.42163C4.65527 1.61816 4.8042 1.89111 4.84668 2.1897C4.92529 2.78589 5.07129 3.37158 5.28125 3.93506C5.36475 4.15747 5.38281 4.39917 5.3335 4.63135C5.28418 4.86377 5.16895 5.0769 5.00195 5.24585L4.21289 6.03467C5.09717 7.58984 6.38477 8.87744 7.93994 9.76172L8.729 8.9729C8.89795 8.80591 9.11084 8.69067 9.34326 8.64111C9.57568 8.59155 9.81738 8.60962 10.0396 8.69336C10.603 8.90356 11.1885 9.04956 11.7852 9.12817C12.0869 9.17065 12.3623 9.32275 12.5596 9.55518C12.7563 9.7876 12.8608 10.0845 12.8535 10.3892L12.8535 12.2527Z" stroke="#FFFFFF" stroke-opacity="1.000000" stroke-width="1.000000" stroke-linejoin="round"/>
</svg>
